<svg xmlns="http://www.w3.org/2000/svg" width="61.2" height="122.5" viewBox="0 0 61.2 122.5"><path fill="#b4fff4" d="M53 87.1L45 74a57.9 57.9 0 0 0 2.7-16.2c0-.8-.1-1.5-.1-2.2-.8-14.6-6.5-19.8-10.7-24a20.8 20.8 0 0 1-4.6-6.2 6.4 6.4 0 0 0 1.8-.6 2.4 2.4 0 0 0 1.1-2.2L35 22c-.3-.4-1.3-.6-3-.7a8.8 8.8 0 0 1 .1-2.8c0-.5 0-.5.8-.6h.1a1.2 1.2 0 0 0 .9-.5 1.9 1.9 0 0 0-.4-1.6v-.3c-1.2-2.8-1.8-4.7-1.8-5.8a3.2 3.2 0 0 0-.5-2h-.8c-.1.1-.6.4-.6 1.9s-.3 2.4-1.7 5.9v.4a2.1 2.1 0 0 0-.4 1.1.9.9 0 0 0 .1.5 1.1 1.1 0 0 0 .9.5h.1c.7.1.7.1.7.6a8.8 8.8 0 0 1 .2 1.7c0 .4-.1.7-.1 1.1q-2.5.1-3 .6l-.3.5a2.8 2.8 0 0 0 1.2 2.3 6.4 6.4 0 0 0 1.8.6H29c-1 2.5-2.7 4.2-4.8 6.2-4.2 4.2-9.8 9.5-10.6 24 0 .7-.1 1.4-.1 2.2A57.9 57.9 0 0 0 16.2 74l-8 13.1L3.4 115h5.4l5.1-17.7 8.5-7.2h.3l1 .3c.1.9.3 1.8.4 2.4s.3 1.5 4.2 1.8v20.2h4.5v-20c4.2-.3 4.4-1.4 4.5-1.8a23.5 23.5 0 0 0 .4-2.4l1-.3h.1l8.5 7 5.1 17.7h5.4z"/></svg>