<?xml version="1.0" encoding="utf-8"?>
<!-- Generator: Adobe Illustrator 22.1.0, SVG Export Plug-In . SVG Version: 6.00 Build 0)  -->
<svg version="1.1" id="Layer_1" xmlns="http://www.w3.org/2000/svg" xmlns:xlink="http://www.w3.org/1999/xlink" x="0px" y="0px"
	 viewBox="0 0 61.2 122.5" style="enable-background:new 0 0 61.2 122.5;" xml:space="preserve">
<style type="text/css">
	.st0{fill:#B4FFF4;}
</style>
<path class="st0" d="M53,87.1L45,74c1.5-5.1,2.6-10.7,2.6-16.3c0-0.7,0-1.5-0.1-2.2C46.8,41,41.1,35.8,36.9,31.6
	c-2-2-3.5-3.7-4.6-6.2c0,0,0,0,0-0.1c0.6-0.1,1.2-0.3,1.8-0.6c0.8-0.5,1.2-1.3,1.2-2.2L35,22c-0.3-0.3-1.3-0.6-3-0.7
	c-0.1-0.9-0.1-1.9,0-2.8c0-0.5,0-0.5,0.8-0.6H33c0.4,0,0.7-0.2,0.9-0.5c0.3-0.6-0.1-1.2-0.3-1.6l-0.1-0.1l-0.1-0.3
	c-1.1-2.8-1.7-4.8-1.7-5.9s-0.3-1.8-0.6-2c-0.2-0.1-0.5-0.1-0.7,0c-0.1,0.1-0.6,0.3-0.6,1.9c0,0.7-0.3,2.3-1.7,5.9v0.2l-0.1,0.1
	c-0.2,0.3-0.4,0.7-0.4,1.1c0,0.2,0,0.3,0.1,0.5c0.2,0.3,0.5,0.5,0.9,0.5h0.1c0.7,0.1,0.7,0.1,0.8,0.6c0.1,0.6,0.1,1.2,0.1,1.7
	c0,0.4,0,0.7-0.1,1.1c-1.6,0.1-2.6,0.3-3,0.7l-0.3,0.5c0,0.9,0.4,1.8,1.2,2.2c0.5,0.3,1.1,0.6,1.8,0.7L29,25.4
	c-1,2.4-2.8,4.2-4.8,6.2c-4.2,4.2-9.8,9.5-10.6,24c0,0.7-0.1,1.4-0.1,2.2c0,5.6,1.2,11.2,2.6,16.3L8.2,87.1L3.4,115h5.4l5.1-17.7
	l8.5-7.2l0.3,0.1l1,0.3c0.1,0.9,0.3,1.8,0.4,2.4c0.1,0.6,0.3,1.5,4.2,1.8v20.2h4.5V94.8c4.2-0.3,4.4-1.3,4.5-1.8
	c0.1-0.4,0.3-1.5,0.4-2.4l1-0.3h0.2l8.5,7l5.1,17.7h5.4L53,87.1z"/>
</svg>
